# xmcd CD database file generated by OrangeCD 6.5
#
# Track frame offsets:
#	150
#	13865
#	26878
#	41138
#	53435
#	64664
#	75291
#	88858
#	98041
#	109707
#	120098
#	130876
#	143234
#
# Disc length: 2041 seconds
#
# Revision: 1
# Processed by: cddbd v1.5.2PL0 Copyright (c) Steve Scherf et al.
# Submitted via: OrangeCD 6.5
#
DISCID=a007f70d
DTITLE=Nell Robinson and Jim Nunally - House and Garden
DYEAR=2013
DGENRE=Folk
TTITLE0=Life In the Garden
TTITLE1=Old Old House
TTITLE2=The Gardener
TTITLE3=Happy To Go
TTITLE4=My Blue Tears
TTITLE5=My Soul
TTITLE6=I Hear a Southwind
TTITLE7=April Fool
TTITLE8=Loose Talk
TTITLE9=Complicated
TTITLE10=Pen In Hand
TTITLE11=House
TTITLE12=Home's Where I Long To Be
EXTD=
EXTT0=
EXTT1=
EXTT2=
EXTT3=
EXTT4=
EXTT5=
EXTT6=
EXTT7=
EXTT8=
EXTT9=
EXTT10=
EXTT11=
EXTT12=
PLAYORDER=
